PathFileType	4	(X/Y/Z)	S01_0008_Gait_markers.trc
DataRate	CameraRate	NumFrames	NumMarkers	Units	OrigDataRate	OrigDataStartFrame	OrigNumFrames
250.000000	250.000000	4	54	mm	250.000000	85	340
Frame#	Time	HEAD_ANT			R_HEAD			L_HEAD			C7			R_BACK			L_BACK			STERNUM			R_ACROMION			R_HUM_PROX			R_HUM_ANT			R_HUM_POST			R_ELBOW_LAT			R_ELBOW_MED			R_FOREARM			R_WIRST_LAT			R_WRITS_MED			R_HAND			L_ACROMION			L_HUM_PROX			L_HUM_ANT			L_HUM_POST			L_ELBOW_LAT			L_ELBOW_MED			L_FOREARM			L_WRIST_LAT			L_WIRST_MED			L_HAND			R_ILIAC			SACRUM			L_ILIAC			R_GTROCH			R_THIGH__1			R_THIGH_2			R_THIGH_3			R_THIGH_4			R_SHANK_1			R_SHANK_2			R_SHANK_3			R_SHANK_4			R_HEEL			R_FOOT_LAT			R_FOOT_MED			L_GTROCH			L_THIGH_1			L_THIGH_2			L_THIGH_3			L_THIGH_4			L_SHANK_1			L_SHANK_2			L_SHANK_3			L_SHANK_4			L_HEEL			L_FOOT_LAT			L_FOOT_MED			
		X1	Y1	Z1	X2	Y2	Z2	X3	Y3	Z3	X4	Y4	Z4	X5	Y5	Z5	X6	Y6	Z6	X7	Y7	Z7	X8	Y8	Z8	X9	Y9	Z9	X10	Y10	Z10	X11	Y11	Z11	X12	Y12	Z12	X13	Y13	Z13	X14	Y14	Z14	X15	Y15	Z15	X16	Y16	Z16	X17	Y17	Z17	X18	Y18	Z18	X19	Y19	Z19	X20	Y20	Z20	X21	Y21	Z21	X22	Y22	Z22	X23	Y23	Z23	X24	Y24	Z24	X25	Y25	Z25	X26	Y26	Z26	X27	Y27	Z27	X28	Y28	Z28	X29	Y29	Z29	X30	Y30	Z30	X31	Y31	Z31	X32	Y32	Z32	X33	Y33	Z33	X34	Y34	Z34	X35	Y35	Z35	X36	Y36	Z36	X37	Y37	Z37	X38	Y38	Z38	X39	Y39	Z39	X40	Y40	Z40	X41	Y41	Z41	X42	Y42	Z42	X43	Y43	Z43	X44	Y44	Z44	X45	Y45	Z45	X46	Y46	Z46	X47	Y47	Z47	X48	Y48	Z48	X49	Y49	Z49	X50	Y50	Z50	X51	Y51	Z51	X52	Y52	Z52	X53	Y53	Z53	X54	Y54	Z54	

86	0.34	657.2899169921875	1744.499755859375	-325.6785278320309	600.6976928710938	1689.045043945312	-250.2264251708981	597.893310546875	1700.072265625	-398.0151977539059	463.103515625	1522.7568359375	-330.9487915039059	393.9444274902344	1323.122436523438	-270.4717102050778	387.8630676269531	1330.656860351562	-405.4633483886716	640.8640747070312	1361.730590820312	-343.5450439453122	546.7120971679688	1466.368774414062	-163.8438873291012	518.0259399414062	1301.16748046875	-79.97928619384737	580.8536376953125	1216.732055664062	-86.92971038818332	460.9744567871094	1216.501708984375	-66.22098541259739	509.208984375	1111.122314453125	-70.19118499755835	477.1270141601562	1110.877807617188	-146.5861053466794	615.8712768554688	931.1870727539062	-89.3612823486326	653.345703125	869.3785400390625	-134.3173980712889	589.6957397460938	841.9636840820312	-93.96463012695294	663.2174072265625	779.5758666992188	-85.14405822753889	534.0994873046875	1486.06640625	-503.1245727539059	503.4093322753906	1322.249755859375	-601.9544677734372	563.788818359375	1240.1787109375	-608.7380371093748	440.6408081054688	1246.561889648438	-625.5853881835935	495.5473937988281	1141.553588867188	-639.4912109374998	447.5772705078125	1135.655029296875	-579.1557006835935	595.2012939453125	961.8184814453126	-640.262268066406	630.8720703125	898.4149169921876	-594.6412353515623	577.902587890625	880.8549194335939	-652.5371093749998	652.5372924804688	820.8707885742189	-648.4706420898435	547.1653442382812	1075.748901367188	-179.8919677734373	411.9006652832031	1046.696411132812	-344.4408874511716	526.41064453125	1071.834716796875	-521.561096191406	503.7485046386719	927.3901977539062	-165.3687438964842	562.1051635742188	647.0786743164062	-203.2381439208983	617.1412353515625	667.3768310546875	-201.7008361816405	627.2244262695312	568.4660034179688	-243.1369628906249	563.5269165039062	567.8084716796875	-229.1537170410155	544.4089965820312	341.5816040039063	-236.9869537353515	597.9255981445312	319.2626342773438	-255.3672180175781	588.439453125	236.2718811035157	-277.3715515136718	525.9113159179688	244.8821868896485	-263.5664062499999	468.96875	44.89974212646492	-357.1045837402344	627.3480224609375	19.56449699401861	-263.0794982910156	689.0860595703125	29.54710197448739	-362.8125915527344	495.6440124511719	953.7091674804689	-529.322082519531	640.7216796875	677.6940307617189	-540.9443359374999	583.9949951171875	690.6484375000001	-553.1101684570311	586.2526245117188	584.6570434570314	-537.4461669921874	649.3794555664062	596.3036499023439	-531.2304687499999	488.2308654785156	369.0255737304689	-531.8186035156249	435.3514709472656	396.9502868652345	-534.9353637695311	369.8164672851562	340.9285583496095	-517.9467163085936	417.0344543457031	297.8943481445314	-511.0908203124999	212.1659698486328	253.566864013672	-444.7457580566406	280.7153625488281	88.6157684326173	-500.9512329101562	313.9732666015625	81.2203903198243	-406.8929748535156	
87	0.344	662.6068725585938	1745.105346679688	-325.6955566406246	606.030517578125	1689.825073242188	-250.2096099853512	603.3422241210938	1700.724487304688	-398.0770568847652	468.3665161132812	1523.593139648438	-330.7142639160153	398.9645080566406	1324.171752929688	-269.4842834472653	393.2293090820312	1331.211303710938	-405.3403320312497	645.9717407226562	1362.656127929688	-343.9158630371091	551.9486083984375	1467.255737304688	-163.7240142822262	523.6223754882812	1302.078491210938	-79.5109100341794	586.83349609375	1217.818725585938	-86.63034820556614	466.8320007324219	1217.0087890625	-66.07621002197239	515.5051879882812	1111.995849609375	-69.9516220092771	483.2398071289062	1111.694946289062	-146.4134979248044	623.0299682617188	932.5274658203125	-89.61450958251932	660.7818603515625	871.3431396484375	-134.7131652832029	597.3128662109375	843.1983032226562	-94.12312316894513	671.39111328125	781.4834594726562	-85.54565429687483	538.921630859375	1486.856079101562	-502.9201354980465	507.9007263183594	1322.9951171875	-601.8574829101559	568.210205078125	1241.11962890625	-609.6223144531248	444.8293151855469	1247.586181640625	-624.284484863281	501.602294921875	1141.707397460938	-638.5678710937498	451.8283081054688	1136.5322265625	-579.1257324218748	598.8627319335938	962.3715209960939	-640.447814941406	634.6521606445312	899.0998535156251	-594.8131713867185	581.4955444335938	881.5578613281251	-652.6077880859373	656.0187377929688	821.4706420898439	-648.4716796874998	552.5347290039062	1076.526611328125	-179.7772064208982	417.0961608886719	1047.62841796875	-344.2729492187498	531.907958984375	1072.913818359375	-521.0632324218748	507.7549438476562	927.8734130859375	-165.0106964111326	564.0928955078125	647.4083862304688	-203.1790771484374	619.556640625	667.198974609375	-200.6949157714842	629.264892578125	568.3553466796875	-242.3697204589843	565.1192626953125	568.233154296875	-228.7817840576171	544.5925903320312	341.8338012695313	-236.9374542236327	598.1314086914062	319.3636779785157	-255.0792694091796	588.572021484375	236.4214630126954	-277.1292419433593	526.0543212890625	245.1857299804688	-263.8792114257812	469.1150207519531	45.20179367065438	-357.3202819824219	627.298828125	19.52360534667974	-263.0071411132812	689.2343139648438	29.58843994140633	-362.6758422851562	501.4514465332031	954.8120727539064	-529.2279663085935	649.0428466796875	679.5242309570314	-540.5643310546874	592.133544921875	692.1682739257814	-553.2366333007811	595.2171020507812	586.1050415039064	-536.8835449218749	658.289794921875	598.1722412109376	-530.6208496093749	498.8272705078125	369.5622863769532	-531.5581054687499	445.62451171875	396.9370422363282	-534.5771484374999	380.8176879882812	340.1374511718751	-517.9016723632811	428.4409484863281	297.5926818847657	-511.0888366699218	223.7566528320312	250.3157653808595	-444.7211303710937	296.2606506347656	87.08402252197277	-501.4374084472656	329.8783569335938	80.22935485839852	-407.424560546875	
88	0.348	667.9891967773438	1745.890625	-325.6045227050777	611.3543090820312	1690.481689453125	-250.2531433105465	608.5348510742188	1701.366943359375	-397.9857177734371	473.4844055175781	1524.318481445312	-330.5490722656247	404.0876159667969	1324.933227539062	-269.1306152343747	398.5126953125	1332.003784179688	-405.2039489746091	651.2608642578125	1363.339965820312	-344.1196594238278	557.2532958984375	1468.161254882812	-163.5753326416012	529.1318969726562	1302.912231445312	-79.27883911132784	592.5292358398438	1218.844482421875	-86.37492370605442	472.5882263183594	1217.671752929688	-65.7936935424802	522.3280639648438	1112.601806640625	-69.64836120605445	489.3935852050781	1112.593994140625	-146.1110076904294	630.1637573242188	934.00244140625	-89.86558532714822	668.0591430664062	872.9019165039062	-135.1316680908201	605.07373046875	844.4363403320312	-94.41513061523419	679.2597045898438	783.1055908203125	-85.95435333251936	544.02001953125	1487.58056640625	-502.7059631347653	512.4718017578125	1323.980590820313	-601.9065551757809	572.440673828125	1241.449462890625	-609.2872924804685	449.0181274414062	1248.456420898438	-625.0748901367185	503.5332946777344	1143.31298828125	-639.5311279296873	456.0532531738281	1137.39111328125	-578.9312744140623	602.62451171875	963.0488281250001	-640.7474365234373	638.3428955078125	899.7990722656251	-594.9343261718748	585.080078125	882.2921142578126	-652.877258300781	659.5714721679688	822.0822143554689	-648.8009643554685	558.0079345703125	1077.271362304688	-179.7957458496091	422.2228088378906	1048.433837890625	-344.266174316406	537.31494140625	1074.14111328125	-520.7221069335935	512.4197387695312	928.56591796875	-165.0785217285154	566.02587890625	647.8648681640625	-202.7868194580077	621.4655151367188	666.973388671875	-200.7725677490233	630.6229248046875	568.141357421875	-241.8847351074218	566.4664916992188	568.6279296875	-228.6850738525389	544.8125610351562	342.1626281738282	-236.9055786132812	598.398193359375	319.4746704101563	-254.8203124999999	588.7581787109375	236.5738067626954	-276.8766784667968	525.978759765625	244.9920196533204	-264.4622497558593	469.1922912597656	45.82253265380867	-356.9721984863281	627.3084716796875	19.50115966796881	-262.9488525390625	689.3800048828125	29.6860942840577	-362.5785217285156	507.3008117675781	955.9317016601564	-529.109680175781	656.9891357421875	681.4511108398439	-540.1672363281249	600.4534301757812	693.4282226562501	-553.2304077148436	604.2256469726562	587.3762207031251	-536.9697265624999	667.0302124023438	600.3694458007814	-530.2567138671874	509.6445007324219	370.3093261718751	-531.4905395507811	455.9259948730469	397.0621337890626	-534.2784423828124	391.906494140625	339.0585937500001	-517.6613159179686	439.862060546875	297.2120361328126	-510.9216918945312	235.3269805908203	246.8938903808595	-444.8478088378906	312.0604248046875	85.68759918212902	-501.7870178222656	345.9303588867188	79.0103073120118	-408.7041931152344	
89	0.352	673.2721557617188	1746.444458007812	-325.6531066894527	616.5643920898438	1691.180786132812	-250.2244720458981	613.8411865234375	1702.053588867188	-397.8357543945309	478.6834106445312	1524.88134765625	-330.5341186523434	409.4373779296875	1325.716796875	-268.4518432617185	403.728759765625	1332.68212890625	-405.0901184082028	656.4511108398438	1364.236450195312	-343.7054748535153	562.6321411132812	1469.083740234375	-163.4772491455075	534.6443481445312	1303.781616210938	-78.87493133544893	598.2656860351562	1219.838012695312	-85.90974426269504	478.2623596191406	1218.374389648438	-65.59355163574192	528.3246459960938	1113.483642578125	-69.29718017578101	495.5045776367188	1113.344360351562	-145.7819213867185	637.2644653320312	935.3175048828125	-90.10739898681619	675.3665771484375	874.4452514648438	-135.5608062744139	612.7293090820312	845.7454223632812	-94.71533203124982	687.364501953125	784.9254760742188	-86.45146942138655	548.9866943359375	1488.208984375	-502.5807189941403	516.8616943359375	1324.669921875	-601.8659057617184	576.6295776367188	1242.6328125	-610.0609741210935	453.0409545898438	1249.579711914063	-623.7712402343748	509.7649536132812	1143.214233398438	-638.6317749023435	460.2039794921875	1138.479858398438	-578.7475585937498	606.3245849609375	963.8861083984376	-640.7272338867185	642.1234130859375	900.3195190429689	-595.1727905273435	588.7916870117188	883.2487182617189	-653.6009521484373	663.0089111328125	822.3575439453126	-648.378967285156	563.517333984375	1077.97021484375	-179.746154785156	427.2629089355469	1049.068115234375	-344.0153198242185	542.9169311523438	1074.892944335938	-520.3185424804685	517.0625610351562	929.3597412109375	-165.2160186767576	567.9564208984375	648.2227783203125	-202.854766845703	623.62939453125	667.0631103515625	-200.0661773681639	631.9136962890625	567.9384155273438	-241.7128143310546	567.7604370117188	569.0057983398438	-228.5331420898436	545.1160888671875	342.4918823242188	-236.908950805664	598.7139282226562	319.5969238281251	-254.5325927734374	588.9533081054688	236.7027587890626	-276.7352905273437	526.0965576171875	245.250961303711	-264.4885253906249	469.3959350585938	46.15546417236336	-357.3553466796875	627.2946166992188	19.47915077209478	-262.9156494140625	689.5457763671875	29.65517807006844	-362.3485412597656	513.0758666992188	957.0834350585939	-529.0802001953123	665.0846557617188	683.3492431640626	-539.8708496093749	608.5855712890625	694.6584472656251	-553.0868530273436	613.6731567382812	588.8342895507814	-537.0199584960936	675.806396484375	602.2927246093751	-529.7119750976561	520.36474609375	370.3649291992189	-531.9841308593749	466.1509399414062	396.761688232422	-533.9597167968749	402.9029235839844	338.1199951171876	-517.9041137695311	451.6049499511719	296.7947998046876	-510.8822021484374	247.2377624511719	243.0560455322266	-444.6512145996093	327.8796691894531	84.02197265625011	-502.2349853515625	361.969482421875	77.86261749267587	-408.9849548339844	
